<?xml version="1.0" encoding="UTF-8"?>
<svg id="Layer_1" data-name="Layer 1" xmlns="http://www.w3.org/2000/svg" xmlns:xlink="http://www.w3.org/1999/xlink" viewBox="0 0 947.77 383.23">
  <defs>
    <style>
    </style>
    <symbol id="New_Symbol" data-name="New Symbol" viewBox="0 0 947.77 383.23">
      <g id="Layer_1-2" data-name="Layer 1-2">
        <g>
          <path d="M262.88,371.75c-1.8,0-4.11-.93-4.95-2.98-.6-1.47-.27-3.08.86-4.24,26.52-28.88,37.31-68.91,41.7-97.41,2.68-18.26,6.79-36.63,10.76-54.4.77-3.44,1.54-6.88,2.3-10.33,1.54-6.69,3.02-13.56,4.59-20.84,8.52-39.41,18.17-84.09,39.69-117.13,7.07-10.91,17.85-26.37,29.84-34.48.73-.48,1.55-.73,2.39-.73,1.98,0,3.8,1.33,4.43,3.22.6,1.81-.03,3.75-1.62,4.93-10.48,7.97-18.57,20.48-25.76,32.8-19.66,34.73-25.79,86.89-30.71,128.8-.31,2.61-.61,5.17-.91,7.68l-.68,5.99c-2.45,21.82-4.45,39.6-9.28,57.04,32.48-47.04,72.97-102.62,105.79-145.06,27.93-36.62,62.37-77.79,105.96-105.38,19.18-12.05,41.61-19.23,59.99-19.23,5.58,0,10.86.64,15.7,1.9,11.74,3.07,21.14,9.81,26.45,18.98,5.24,9.04,6.37,19.84,3.28,31.24-1.95,7.06-6.06,13.73-10.23,16.63-.96.71-2.18,1.13-3.38,1.13-1.86,0-3.38-1.05-3.87-2.68-.41-1.36,0-2.77,1.06-3.77,2.06-2.8,2.83-4.6,4.01-10.74,2.82-16.71-6.82-30.94-24.01-35.33-3-.76-6.28-1.15-9.73-1.15-15.13,0-32.29,7.29-47.19,14.12l-.68.31c-5.85,2.74-11.57,6.23-17.02,10.38-40.03,30.49-65.66,60.05-94.03,97.86-38.02,48.76-70.18,93-104.31,143.5-1.81,2.71-3.63,5.44-5.45,8.18-17.73,26.65-36.07,54.2-61.95,80.01-.79.77-1.86,1.19-3.05,1.19Z"/>
          <path d="M547.94,27.22c-6.52,2.98-12.64,6.74-18.33,11.07-40.41,30.78-66.59,61.07-94.7,98.53-38.09,48.85-70.12,92.91-104.41,143.64-19.69,29.43-38.73,59.5-66.99,87.68-.64.62-3.23-.34-2.27-1.28,24.76-26.93,37.2-64.16,42.59-99.24,3.18-21.61,8.25-42.91,13.02-64.52,9.84-42.91,18.73-98.32,43.81-136.85,7.3-11.28,17.78-26,28.89-33.51.95-.62,2.54.94,1.27,1.88-11.11,8.45-19.36,21.29-26.66,33.82-21.27,37.57-26.99,95.2-32.06,137.79-4.6,40.56-6.7,66.12-24.98,99.2-1.91,3.45-7.1,8.14,5.6-10.96,34.6-51.36,83.51-118.93,121.28-167.78,28.89-37.89,62.54-77.66,105.09-104.59,20.96-13.16,50.16-22.86,73.02-16.92,21.59,5.64,33.33,23.8,27.3,46.04-1.91,6.89-5.72,12.52-8.88,14.72-1.27.94-2.7.44-1.76-.18,2.7-3.61,3.59-5.86,4.86-12.44,3.18-18.79-8.09-34.57-26.5-39.28-17.72-4.5-38.81,3.83-59.18,13.17h-.01Z"/>
          <path d="M455.03,352.92c-6.26,0-11.97-2.27-16.08-6.38-4.07-4.08-6.21-9.6-6.19-15.96.03-7.67,1.83-15.32,4.7-22.88-12.09,13.63-27.04,28.23-42.26,37.45-6.57,3.91-14.03,6.14-20.5,6.14-10.57,0-17.86-6.01-20-16.5-3.57-16.07,4-39.5,8.5-49.64,14.52-34.17,47.58-64.54,72.72-76.85,8.96-4.21,22.13-9.79,33.51-9.79,8.52,0,14.8,3.05,18.66,9.06,2.63,4,3.62,8.27,3.54,12.63,4-5.74,8.08-11.47,12.24-16.97l1.1-1.46,1.82.11c.99.06,1.99.09,2.96.09,9.72,0,18.26-2.96,24.69-8.56l4.88,4.7c-1.99,2.47-3.93,4.79-6.19,7.48-4.99,5.95-11.2,13.36-21.33,26.56-16.61,21.36-36.84,51.7-51.54,77.3-3.2,5.37-10.39,24.21-7.36,29.54.2.36.55.96,2.12.96.83,0,1.84-.17,2.99-.51,6.51-1.77,16.89-9.06,28.51-20.02,17.11-16.01,43.67-45.01,64.65-70.59.97-1.37,2.32-1.52,2.86-1.52h2.05l.96,1.82c.87,1.65.5,2.5-1.93,8.01-1.04,2.36-2.41,5.37-3.04,6.29l-.08.11-.77.95c-18.82,23.37-38.29,47.54-57.08,65.13-14.27,13.46-25.23,20.87-33.5,22.67-1.86.41-3.76.61-5.63.61ZM464.43,212.79c-8.53,0-20.49,7.12-27.98,13.74-17.07,14.49-33.13,35.26-47.78,61.78-12.22,22.39-19.96,44-17.25,48.15.71,1.11,2.39,1.34,3.69,1.34,3.55,0,8.48-1.67,12.88-4.36l2.3-1.4c21.27-13.65,52.1-48.61,74.45-84.62,8.73-13.74,11.81-25.14,8.25-30.56-2.02-2.74-4.82-4.07-8.56-4.07Z"/>
          <path d="M553.95,250.84c-19.29,23.53-46.23,53.44-65.08,71.07-11.14,10.5-22.21,18.73-29.9,20.82-20.08,5.83-4.65-29.91-1.65-34.96,15.45-26.91,35.64-56.91,51.79-77.68,14.66-19.09,21.14-26.12,27.57-34.1-7.71,6.71-18.26,10.02-30.09,9.29-8.57,11.34-16.72,23.53-24.88,35.3,4.73-9.25,9.9-21.45,3.52-31.17-9.77-15.2-36.27-3.49-47.82,1.94-25.65,12.56-57.35,42.79-71.11,75.17-4.3,9.68-11.64,32.39-8.27,47.58,3.78,18.54,23.42,15.25,35.4,8.13,23.52-14.25,47.96-42.81,63.82-64.66-9.44,15.13-21.03,34.47-21.1,53.01-.04,13.9,11.77,21.01,23.77,18.39,8.93-1.94,20.76-11.33,31.9-21.83,18.85-17.63,38.16-41.68,57.44-65.63.86-1.26,5.52-11.95,4.67-10.69h0ZM389.76,336.35c-7.74,4.73-17.94,7.1-21.19,1.97-4.89-7.5,9.38-37.46,17.12-51.65,12.63-22.86,28.54-45.74,48.51-62.69,9.38-8.28,31.79-22.48,41.58-9.07,4.48,6.7,1.63,18.92-8.15,34.3-24.46,39.43-57.07,74.91-77.86,87.15h0Z"/>
          <path d="M845.24,352.92c-6.26,0-11.97-2.27-16.08-6.38-4.07-4.08-6.21-9.6-6.19-15.96.03-7.67,1.83-15.32,4.7-22.88-12.09,13.63-27.04,28.23-42.25,37.45-6.57,3.91-14.03,6.14-20.5,6.14-10.57,0-17.86-6.01-20-16.5-3.57-16.07,4-39.5,8.49-49.64,14.53-34.17,47.58-64.54,72.72-76.85,8.96-4.21,22.13-9.79,33.51-9.79,8.52,0,14.8,3.05,18.66,9.06,2.63,4,3.62,8.27,3.54,12.63,4-5.74,8.08-11.47,12.24-16.97l1.1-1.46,1.82.11c.99.06,1.99.09,2.96.09,9.72,0,18.26-2.96,24.69-8.56l4.88,4.7c-1.98,2.46-3.93,4.78-6.18,7.47-4.99,5.95-11.2,13.36-21.34,26.57-16.61,21.36-36.83,51.7-51.54,77.3-3.2,5.37-10.39,24.21-7.36,29.54.21.36.55.96,2.12.96.83,0,1.84-.17,2.99-.51,6.51-1.77,16.88-9.06,28.51-20.02,17.11-16.01,43.67-45.01,64.65-70.59.95-1.34,2.13-1.63,2.95-1.63h1.71l1.03,1.38c1.07,1.44.68,2.73.14,4.51-.48,1.59-1.29,4.26-1.76,7.2l-.14.89-.57.7c-24.74,30.71-44.5,52.86-60.4,67.73-14.27,13.46-25.23,20.87-33.5,22.67-1.86.41-3.76.61-5.63.61ZM854.64,212.79c-8.53,0-20.49,7.12-27.98,13.74-17.07,14.49-33.13,35.26-47.78,61.78-12.21,22.39-19.96,44-17.25,48.15.71,1.11,2.39,1.34,3.69,1.34,3.55,0,8.48-1.67,12.88-4.36l2.3-1.4c21.27-13.65,52.1-48.61,74.45-84.62,8.73-13.73,11.81-25.14,8.25-30.56-2.02-2.74-4.82-4.07-8.56-4.07Z"/>
          <path d="M944.16,250.84c-19.29,23.53-46.23,53.44-65.08,71.07-11.14,10.5-22.21,18.73-29.9,20.82-20.08,5.83-4.65-29.91-1.65-34.96,15.45-26.91,35.64-56.91,51.79-77.68,14.66-19.09,21.14-26.12,27.57-34.1-7.71,6.71-18.26,10.02-30.09,9.29-8.57,11.34-16.72,23.53-24.88,35.3,4.73-9.25,9.9-21.45,3.52-31.17-9.77-15.2-36.27-3.49-47.82,1.94-25.65,12.56-57.35,42.79-71.11,75.17-4.3,9.68-11.64,32.39-8.27,47.58,3.78,18.54,23.42,15.25,35.4,8.13,23.52-14.25,47.96-42.81,63.82-64.66-9.44,15.13-21.03,34.47-21.1,53.01-.04,13.9,11.77,21.01,23.77,18.39,8.93-1.94,20.76-11.33,31.9-21.83,18.85-17.63,40.77-43.43,60.07-67.38.9-5.62,2.91-10.2,2.05-8.94h0ZM779.97,336.35c-7.74,4.73-17.94,7.1-21.19,1.97-4.89-7.5,9.38-37.46,17.12-51.65,12.63-22.86,28.54-45.74,48.51-62.69,9.38-8.28,31.79-22.48,41.58-9.07,4.48,6.7,1.63,18.92-8.15,34.3-24.46,39.43-57.07,74.91-77.86,87.15h0Z"/>
          <path d="M565.14,351.74c7.94-10.76,16.7-23.85,25.17-36.51,5.76-8.6,11.2-16.73,15.95-23.47,4.81-7.43,8.87-13.1,12.44-18.12,8.79-12.31,15.14-21.21,24.38-44.73.41-1.03.79-2.12,1.15-3.26,2.33-7.37,1.91-10.18.21-12.04-.56-.15-1.19-.23-1.88-.23-21.71,0-80.77,64.94-106.33,99.76-2.43,3.29-4.73,6.37-6.97,9.36-5.98,8-11.64,15.56-17.87,24.72l-1.07,1.57-1.9-.09c-.85-.04-1.68-.06-2.47-.06-9.04,0-14.61,2.52-23.68,8.15l-4.42-5.05c10.3-12.53,38.66-51.53,47-64,8.96-12.92,16.52-24.23,24.53-36.21,5.74-8.59,11.69-17.48,18.35-27.26l14.98-22.25,2.14.33c1.69.26,3.37.4,5.02.4,7.48,0,14.59-2.74,21.15-8.15l4.92,4.62c-5.48,7.54-9.15,12.63-12.01,16.64,13.8-10.81,26.84-16.27,38.98-16.27,1.52,0,3.04.09,4.52.26,5.62.74,10.12,3.47,13.07,7.91,3.91,5.9,4.88,14.86,2.52,23.38-1.08,3.75-2.25,7.07-3.49,10.12,3.95-3.91,7.87-7.61,11.88-11.39l2.36-2.23c14.15-13.45,34.5-27.98,49.14-28.4.22,0,.43,0,.64,0,6.37,0,11.64,2.44,15.26,7.06,5.46,6.97,5.59,16.71,4.05,22.93-4.44,17.27-15.99,33.1-27.17,48.41-2.39,3.28-4.65,6.37-6.85,9.49l-2.99,4.2c-8.92,12.52-19.04,26.71-25.14,37.54-3.03,5.2-2.58,6.37-2.52,6.48,0,0,.7.79,4.21.81,3.98,0,10.57-3.04,17.67-8.14l.22-.16.03-.02c20.69-15.07,50.95-46.26,77.2-79.58,1.01-1.33,2.32-1.53,3.01-1.53,1.44,0,2.7.82,3.39,2.2,1.11,2.24,1.15,8.79-.75,11.29-27.39,34.77-58.77,66.96-79.97,82.04-7.7,5.33-15.92,10.24-24.12,10.24-6.77-.02-12.32-2.84-16.11-8.14-4.6-6.42-5.93-15.98-3.31-23.78,5.7-16.99,14.5-28.53,23.01-39.69,2.49-3.27,5.07-6.65,7.51-10.1,2.69-3.9,5.42-7.69,8.07-11.36,8.71-12.06,16.93-23.46,22.85-37.85l.05-.13.07-.13c1.2-2.34,1.44-5.37.55-6.9-.26-.45-.66-.87-1.77-.92h-.24c-6.78,0-18.87,10.36-34.17,23.49-1.93,1.66-3.93,3.37-6,5.14-17.11,14.59-36.17,37.04-53.67,63.2-3.85,5.88-6.33,9.57-8.72,13.14-4.32,6.43-8.41,12.51-20.02,30.67l-1.15,1.79-2.11-.25c-2.7-.32-4.51-.45-6.04-.45-4.52,0-7.25,1.29-15.33,5.11-.99.47-2.05.97-3.2,1.51l-4.18-5.1Z"/>
          <path d="M702.09,330.78c21.4-15.52,51.95-47.2,78.1-80.39,1.28-1.68,1.55,6.11.27,7.79-26.15,33.19-57.42,65.81-79.24,81.33-7.27,5.03-14.97,9.64-22.23,9.61-14.94-.05-19.74-16.67-16.12-27.44,7.18-21.41,19.36-33.77,30.08-48.9,11.59-16.81,23.38-30.65,31.3-49.88,2.54-4.94,2.11-12.54-4.11-12.77-8.97-.36-22.62,12.27-42.75,29.43-17.81,15.2-37.13,38.25-54.29,63.89-10.73,16.39-10.62,15.46-28.79,43.86-11.09-1.3-12.27-.17-26.42,6.46,13.46-18.24,29.55-43.56,41.2-60.09,16.76-25.88,24.03-30.04,37.17-63.51.45-1.14.86-2.32,1.23-3.49,2.48-7.82,2.62-12.56-1.2-16.01-20.88-8.5-87.48,66.02-112.79,100.48-9,12.19-16.33,21.56-24.91,34.18-11.3-.52-17.75,2.16-28.11,8.6,10.72-13.03,39.05-52.09,47.2-64.27,15.44-22.27,27.05-40.23,42.86-63.44l13.78-20.47c11.09,1.72,20.72-1.79,28.85-8.5-23.22,31.97-14.2,20.2-47.78,67.45,3.3-4.56,5.69-9.24,8.86-13.27,28.16-35.7,52.83-50.52,72.77-48.17,13.22,1.73,15.73,16.06,12.71,27.01-4.75,16.41-10.98,24.3-19.57,37.75,12.86-16.38,23.94-26.54,35.93-37.87,14.13-13.43,33.68-27.1,46.9-27.47,15.37-.38,19.16,15.23,16.55,25.76-5.19,20.2-21.05,39.1-33.49,56.75-9.86,13.87-21.44,29.83-28.31,42.03-3.44,5.89-6.03,12.32,4.64,12.36,5.55.02,13.25-4.17,19.66-8.78l.04-.02Z"/>
          <path d="M50.01,383.23c-16.24,0-30.93-5.41-40.31-14.85C3.32,362.08-.22,352.55.01,342.25c.26-11.59,5.23-22.85,13.28-30.13.8-.75,1.8-1.16,2.83-1.16,1.54,0,2.91.91,3.49,2.32.54,1.29.32,2.73-.54,3.88-8.95,16.78-8.29,24.52,2.92,35.85,8.68,8.56,20.39,10.36,28.68,10.36,6.42,0,13.45-1.07,20.33-3.09,56.17-17.02,103.24-66.75,133.76-102.67,28.02-32.69,55.67-71.95,82.42-109.91,12.72-18.05,24.73-35.1,36.17-50.56l1.28-1.72c16.21-21.74,34.58-46.38,60.68-63.49l2.24-1.91.21-.13c9.73-6.1,21.25-12.95,34.72-16.95,2.38-.83,7.54-2.2,12.27-2.2s7.25,1.35,8.71,2.97h.54l.84,2.24c2.26,6.22-4.31,12.08-11.21,15.49l-.13.06c-10.17,4.51-22.25,6.61-38.02,6.61-1.21,0-2.43-.01-3.64-.03-18.69,12.51-35.02,35.5-49.45,55.81-4.3,6.06-8.37,11.77-12.43,17.16-13.07,17.68-26.14,36.71-39.97,56.85-23.72,34.53-48.25,70.24-74.33,101.15-37.06,44.48-75.37,77.27-113.86,97.45-1.48.78-2.79,1.49-4.05,2.19-5.05,2.78-9.82,5.4-22.69,9.98-7.58,2.98-16.24,4.56-25.06,4.56ZM431.57,19.61c-1.11.09-1.55.18-2.18.36-6.38,1.76-9.33,3.02-12.44,4.36-.54.23-1.07.46-1.63.69l5.19-.89c6.98-1.51,10.32-3.47,11.75-4.57-.23.01-.48.03-.69.05Z"/>
          <path d="M441.63,17.11c-1.91-5.01-13.66-2.51-18.09-.94-12.7,3.76-23.49,10.03-33.97,16.6l-2.22,1.88c-26.35,17.22-44.45,41.96-61.27,64.51-35.24,47.6-77.14,112.11-118.73,160.65-37.78,44.47-82.7,87.76-135.39,103.73-18.09,5.32-39.05,5.01-52.38-8.14-13.02-13.15-12.57-22.95-3.34-40.15.64-.64,0-1.25-.64-.64-14.6,13.16-16.51,38.52-3.49,51.36,15.24,15.35,42.71,17.03,61.76,9.51,15.85-5.63,18.91-8.1,26.35-12,43.57-22.84,81.45-58.95,112.84-96.63,40.96-48.54,78.31-109.32,114.19-157.86,18.42-24.42,38.52-58.05,63.6-74.34,14.29.31,28.57-.64,41.27-6.27,4.45-2.2,11.11-6.89,9.52-11.28h-.02ZM436.03,20.57s-2.4,4.21-14.87,6.9l-26.99,4.61s12.56-7.28,18.15-9.51c4.79-1.91,7.39-3.46,16.15-5.88.88-.25,1.55-.37,2.83-.47.41-.03.97-.06,1.4-.08.29,0,.31-.03.52-.01.37.02.28.01.71.1,1.01.19,1.38.39,1.96.78,1.12.74,1.55,1.95.14,3.58h0Z"/>
          <path d="M232.76,163.24c-11.63,0-22.21-3.88-30.38-11.27-20.95-18.45-17.92-51.02-6.22-73.46,24.47-47.64,83.68-62.3,126.96-60.37,13.71.66,27.51,2.85,40.85,4.97,10.81,1.72,21.03,3.34,31.07,4.19l.6.09c1,.1,6.37.31,24.03-3.1l5.26-1.02,1.73,6.56-19.09,6.4-.95-2.85c-7.81,1.05-11.04.89-12.31.68-1.41-.12-2.82-.25-4.25-.4l-.34,3.92c-1.12-.1-2.47-.18-3.95-.28-3.17-.21-6.76-.44-10.12-.88-4.63-.61-9.04-1.28-13.3-1.93-12.61-1.92-24.53-3.7-39.54-3.66-45.4.24-80.09,8.73-101.8,49.44-8.75,16.6-13.24,40.71.4,58.63,7.57,8.32,10.04,10.48,20.58,9.95,17.04-.86,25.27-8.53,36.25-24.34,1.11-1.67,3.31-2.28,5.07-1.36,1.53.8,2.59,2.83,1.67,5.14l-.08.19c-9,19.02-24.72,31.16-44.28,34.17-2.67.39-5.3.58-7.87.58ZM263.4,32.98c-25.17,8.35-48.37,23.67-61.2,48.66-10.52,20.19-13.53,49.2,4.7,65.26,8.48,7.67,20.09,10.87,32.72,9.04.47-.07.95-.15,1.41-.24-12.07.37-16.31-3.03-24.76-12.33l-.18-.22c-15.69-20.48-10.85-47.55-1.09-66.06,12.51-23.46,29.39-36.71,48.4-44.1ZM283.88,128.34s-.04.05-.06.08c.02-.03.04-.05.06-.08ZM395.47,27.37h0,0Z"/>
          <path d="M390.02,34.19c-3.45-.3-9.07-.51-13.92-1.14-18.23-2.41-32.88-5.72-53.3-5.62-41.45.22-81.08,6.8-104.79,51.24-10.19,19.32-13.13,44.25.79,62.41,8.17,8.99,11.54,11.76,23.37,11.17,18.78-.95,27.77-9.82,38.88-25.79.39-.58,1.17-.39.79.58-8.23,17.39-22.92,29.37-41.72,32.27-13.32,1.93-26.05-1.36-35.45-9.85-19.98-17.59-16.26-48.69-5.48-69.37,22.13-43.09,76-60.67,123.79-58.54,24.28,1.16,48.87,7.23,71.79,9.15,0,0,3.92,1.12,25.57-3.06l5.27-1.02-19.09,6.4"/>
        </g>
      </g>
    </symbol>
  </defs>
  <use width="947.77" height="383.23" xlink:href="#New_Symbol"/>
</svg>