<?xml version="1.0" encoding="UTF-8"?>
<svg id="Layer_2" xmlns="http://www.w3.org/2000/svg" viewBox="0 0 873.77 349.51">
  <g id="Layer_1-2" data-name="Layer_1">
    <g>
      <path d="M505.66,22.11c-6.05,2.77-11.74,6.26-17.02,10.28-37.52,28.58-61.83,56.71-87.93,91.49-35.37,45.36-65.11,86.27-96.95,133.38-18.28,27.33-35.96,55.25-62.2,81.42-.59.58-3-.32-2.11-1.19,22.99-25.01,34.54-59.58,39.55-92.15,2.95-20.07,7.66-39.84,12.09-59.91,9.14-39.84,17.39-91.3,40.68-127.07,6.78-10.47,16.51-24.14,26.83-31.12.88-.58,2.36.87,1.18,1.75-10.32,7.85-17.98,19.77-24.76,31.4-19.75,34.89-25.06,88.4-29.77,127.95-4.27,37.66-6.22,61.4-23.2,92.11-1.77,3.2-6.59,7.56,5.2-10.18,32.13-47.69,77.54-110.43,112.62-155.79,26.83-35.18,58.07-72.11,97.58-97.12,19.46-12.22,46.58-21.23,67.8-15.71,20.05,5.24,30.95,22.1,25.35,42.75-1.77,6.4-5.31,11.63-8.25,13.67-1.18.87-2.51.41-1.63-.17,2.51-3.35,3.33-5.44,4.51-11.55,2.95-17.45-7.51-32.1-24.61-36.47-16.45-4.18-36.04,3.56-54.95,12.23Z"/>
      <path d="M511.24,229.75c-17.91,21.85-42.93,49.62-60.43,65.99-10.34,9.75-20.62,17.39-27.76,19.33-18.65,5.41-4.32-27.77-1.53-32.46,14.35-24.99,33.09-52.84,48.09-72.13,13.61-17.73,19.63-24.25,25.6-31.66-7.16,6.23-16.96,9.3-27.94,8.63-7.96,10.53-15.53,21.85-23.1,32.78,4.39-8.59,9.19-19.92,3.27-28.94-9.07-14.11-33.68-3.24-44.4,1.8-23.82,11.66-53.25,39.73-66.03,69.8-3.99,8.99-10.81,30.08-7.68,44.18,3.51,17.22,21.75,14.16,32.87,7.55,21.84-13.23,44.53-39.75,59.26-60.04-8.77,14.05-19.53,32.01-19.59,49.22-.04,12.91,10.93,19.51,22.07,17.08,8.29-1.8,19.28-10.52,29.62-20.27,17.5-16.37,35.43-38.7,53.34-60.94.8-1.17,5.13-11.1,4.34-9.93ZM358.78,309.15c-7.19,4.39-16.66,6.59-19.68,1.83-4.54-6.96,8.71-34.78,15.9-47.96,11.73-21.23,26.5-42.47,45.04-58.21,8.71-7.69,29.52-20.87,38.61-8.42,4.16,6.22,1.51,17.57-7.57,31.85-22.71,36.61-52.99,69.56-72.3,80.92Z"/>
      <path d="M873.57,229.75c-17.91,21.85-42.93,49.62-60.43,65.99-10.34,9.75-20.62,17.39-27.76,19.33-18.65,5.41-4.32-27.77-1.53-32.46,14.35-24.99,33.09-52.84,48.09-72.13,13.61-17.73,19.63-24.25,25.6-31.66-7.16,6.23-16.96,9.3-27.94,8.63-7.96,10.53-15.53,21.85-23.1,32.78,4.39-8.59,9.19-19.92,3.27-28.94-9.07-14.11-33.68-3.24-44.4,1.8-23.82,11.66-53.25,39.73-66.03,69.8-3.99,8.99-10.81,30.08-7.68,44.18,3.51,17.22,21.75,14.16,32.87,7.55,21.84-13.23,44.53-39.75,59.26-60.04-8.77,14.05-19.53,32.01-19.59,49.22-.04,12.91,10.93,19.51,22.07,17.08,8.29-1.8,19.28-10.52,29.62-20.27,17.5-16.37,37.86-40.33,55.78-62.57.84-5.22,2.7-9.47,1.9-8.3ZM721.11,309.15c-7.19,4.39-16.66,6.59-19.68,1.83-4.54-6.96,8.71-34.78,15.9-47.96,11.73-21.23,26.5-42.47,45.04-58.21,8.71-7.69,29.52-20.87,38.61-8.42,4.16,6.22,1.51,17.57-7.57,31.85-22.71,36.61-52.99,69.56-72.3,80.92Z"/>
      <path d="M648.79,303.98c19.87-14.41,48.24-43.83,72.52-74.65,1.19-1.56,1.44,5.67.25,7.23-24.28,30.82-53.32,61.11-73.58,75.52-6.75,4.67-13.9,8.95-20.64,8.92-13.87-.05-18.33-15.48-14.97-25.48,6.67-19.88,17.98-31.36,27.93-45.41,10.76-15.61,21.71-28.46,29.06-46.32,2.36-4.59,1.96-11.64-3.82-11.86-8.33-.33-21,11.39-39.7,27.33-16.54,14.11-34.48,35.52-50.41,59.33-9.96,15.22-9.86,14.36-26.73,40.73-10.3-1.21-11.39-.16-24.53,6,12.5-16.94,27.44-40.45,38.26-55.8,15.56-24.03,22.31-27.89,34.51-58.97.42-1.06.8-2.15,1.14-3.24,2.3-7.26,2.43-11.66-1.11-14.87-19.39-7.89-81.23,61.3-104.73,93.3-8.36,11.32-15.16,20.02-23.13,31.74-10.49-.48-16.48,2.01-26.1,7.99,9.95-12.1,36.26-48.37,43.83-59.68,14.34-20.68,25.12-37.36,39.8-58.91l12.8-19.01c10.3,1.6,19.24-1.66,26.79-7.89-21.56,29.69-13.19,18.76-44.37,62.63,3.06-4.23,5.28-8.58,8.23-12.32,26.15-33.15,49.06-46.91,67.57-44.73,12.28,1.61,14.61,14.91,11.8,25.08-4.41,15.24-10.2,22.56-18.17,35.05,11.94-15.21,22.23-24.64,33.36-35.16,13.12-12.47,31.27-25.16,43.55-25.51,14.27-.35,17.79,14.14,15.37,23.92-4.82,18.76-19.55,36.31-31.1,52.7-9.16,12.88-19.91,27.7-26.29,39.03-3.19,5.47-5.6,11.44,4.31,11.48,5.15.02,12.3-3.87,18.26-8.15Z"/>
      <path d="M406.94,12.72c-1.77-4.65-12.68-2.33-16.8-.87-11.79,3.49-21.81,9.31-31.54,15.41l-2.06,1.75c-24.47,15.99-41.27,38.96-56.89,59.9-32.72,44.2-71.63,104.1-110.25,149.17-35.08,41.29-76.79,81.49-125.72,96.32-16.8,4.94-36.26,4.65-48.64-7.56-12.09-12.21-11.67-21.31-3.1-37.28.59-.59,0-1.16-.59-.59-13.56,12.22-15.33,35.77-3.24,47.69,14.15,14.25,39.66,15.81,57.35,8.83,14.72-5.23,17.56-7.52,24.47-11.14,40.46-21.21,75.63-54.74,104.78-89.73,38.03-45.07,72.72-101.51,106.03-146.58,17.1-22.68,35.77-53.9,59.06-69.03,13.27.29,26.53-.59,38.32-5.82,4.13-2.04,10.32-6.4,8.84-10.47ZM401.74,15.93s-2.23,3.91-13.81,6.41l-25.06,4.28s11.66-6.76,16.85-8.83c4.45-1.77,6.86-3.21,15-5.46.82-.23,1.44-.34,2.63-.44.38-.03.9-.06,1.3-.07.27,0,.29-.03.48-.01.34.02.26.01.66.09.94.18,1.28.36,1.82.72,1.04.69,1.44,1.81.13,3.32Z"/>
      <path d="M359.02,28.58c-3.2-.28-8.42-.47-12.93-1.06-16.93-2.24-30.53-5.31-49.49-5.22-38.49.2-75.29,6.31-97.3,47.58-9.46,17.94-12.19,41.09.73,57.95,7.59,8.35,10.72,10.92,21.7,10.37,17.44-.88,25.79-9.12,36.1-23.95.36-.54,1.09-.36.73.54-7.64,16.15-21.28,27.27-38.74,29.96-12.37,1.79-24.19-1.26-32.92-9.15-18.55-16.33-15.1-45.21-5.09-64.41,20.55-40.01,70.57-56.34,114.95-54.36,22.55,1.08,45.38,6.71,66.66,8.5,0,0,3.64,1.04,23.74-2.84l4.89-.95-17.73,5.94"/>
    </g>
  </g>
</svg>